<mxfile host="app.diagrams.net" modified="2024-04-15T02:04:33.175Z" agent="Mozilla/5.0 (Windows NT 10.0; Win64; x64) AppleWebKit/537.36 (KHTML, like Gecko) Chrome/123.0.0.0 Safari/537.36" version="24.2.5" etag="eyZQS8_xfWCSnI-1Nj0u" type="github">
  <diagram name="Page-1" id="4KpVw5Uzw4BKBDQLnkrN">
    <mxGraphModel>
      <root>
        <mxCell id="0" />
        <mxCell id="1" parent="0" />
      </root>
    </mxGraphModel>
  </diagram>
</mxfile>
